<svg width="121" height="28" viewBox="0 0 121 28" fill="none" xmlns="http://www.w3.org/2000/svg">
<path d="M21.7093 25.5831C21.2721 25.8746 20.677 26.2025 19.9241 26.5669C19.1711 26.9312 18.2845 27.247 17.2644 27.5142C16.2686 27.7571 15.1756 27.8665 13.9854 27.8422C11.9208 27.8179 10.0749 27.4535 8.44752 26.749C6.82016 26.0446 5.42355 25.0851 4.25768 23.8705C3.11609 22.6316 2.24169 21.2227 1.63447 19.6438C1.02724 18.0648 0.723633 16.3766 0.723633 14.579C0.723633 12.6114 1.03939 10.8017 1.6709 9.14986C2.3267 7.47374 3.23754 6.0284 4.40341 4.81382C5.56928 3.57496 6.9416 2.61544 8.52039 1.93528C10.1235 1.25512 11.8723 0.915039 13.7668 0.915039C15.3456 0.915039 16.7786 1.13366 18.0659 1.57091C19.3533 1.98386 20.4584 2.46969 21.3814 3.0284L19.9605 6.34419C19.2318 5.85836 18.3453 5.39682 17.3008 4.95957C16.2564 4.52233 15.1148 4.3037 13.8761 4.3037C12.5888 4.3037 11.3743 4.57091 10.2328 5.10532C9.09118 5.61544 8.08319 6.33204 7.20878 7.25512C6.33438 8.1539 5.64215 9.22273 5.13208 10.4616C4.6463 11.6762 4.40341 12.9879 4.40341 14.3968C4.40341 16.2916 4.79203 18.0041 5.56928 19.5345C6.37081 21.0405 7.48811 22.2308 8.92115 23.1053C10.3785 23.9798 12.0787 24.4171 14.0218 24.4171C15.382 24.4171 16.5722 24.2227 17.5923 23.8341C18.6367 23.4211 19.499 22.9474 20.1791 22.413L21.7093 25.5831Z" fill="white"/>
<path d="M26.8222 12.4656H30.2105V27.5507H26.8222V12.4656ZM26.5671 7.0365C26.5671 6.47779 26.7736 6.0284 27.1865 5.68832C27.6237 5.32395 28.0973 5.14176 28.6074 5.14176C29.1175 5.14176 29.579 5.32395 29.9919 5.68832C30.4048 6.0284 30.6112 6.47779 30.6112 7.0365C30.6112 7.5952 30.4048 8.05674 29.9919 8.42111C29.579 8.76119 29.1175 8.93123 28.6074 8.93123C28.0973 8.93123 27.6237 8.76119 27.1865 8.42111C26.7736 8.05674 26.5671 7.5952 26.5671 7.0365Z" fill="white"/>
<path d="M39.1688 12.4656L39.3874 15.3806C39.8975 14.3118 40.6869 13.4616 41.7556 12.83C42.8243 12.1984 44.0631 11.8826 45.4718 11.8826C46.8806 11.8826 48.0343 12.3077 48.933 13.158C49.856 13.9839 50.3418 15.0648 50.3903 16.4009V27.5507H46.9656V17.5669C46.917 16.7652 46.662 16.1094 46.2005 15.5992C45.7633 15.0891 45.071 14.8219 44.1238 14.7976C42.8122 14.7976 41.707 15.332 40.8083 16.4009C39.9339 17.4454 39.4967 18.8057 39.4967 20.4818V27.5507H36.1084V12.4656H39.1688Z" fill="white"/>
<path d="M63.2417 27.915C61.5414 27.915 60.0598 27.575 58.7968 26.8948C57.558 26.1903 56.5986 25.2308 55.9185 24.0163C55.2627 22.8017 54.9348 21.4292 54.9348 19.8988C54.9348 18.4171 55.2992 17.0689 56.0278 15.8543C56.7808 14.6154 57.7888 13.6438 59.0518 12.9393C60.3391 12.2106 61.76 11.8462 63.3145 11.8462C65.3062 11.8462 66.9579 12.4292 68.2695 13.5952C69.5811 14.7612 70.4798 16.3644 70.9655 18.4049L59.0154 22.5952C59.4283 23.3482 60.0112 23.9434 60.7642 24.3806C61.5171 24.7936 62.3672 25.0001 63.3145 25.0001C63.9946 25.0001 64.6383 24.8786 65.2455 24.6357C65.8527 24.3928 66.4357 24.077 66.9943 23.6883L68.5609 26.2025C67.7837 26.7126 66.9214 27.1256 65.9742 27.4414C65.0512 27.7571 64.1404 27.915 63.2417 27.915ZM58.2867 19.7167C58.2624 20.0082 58.2746 20.2875 58.3231 20.5547L67.1036 17.3118C66.7636 16.5831 66.2656 15.9393 65.6098 15.3806C64.9783 14.8219 64.1282 14.5426 63.0595 14.5426C61.675 14.5426 60.5334 15.0284 59.6347 16.0001C58.736 16.9717 58.2867 18.2106 58.2867 19.7167Z" fill="white"/>
<path d="M78.2351 12.4656L78.4538 15.3442C79.0367 14.2511 79.8261 13.4009 80.8219 12.7936C81.8421 12.162 83.0079 11.8462 84.3195 11.8462C85.5583 11.8462 86.5906 12.1377 87.4164 12.7207C88.2665 13.3037 88.7887 14.0932 88.983 15.0891C89.5902 14.0689 90.3796 13.2794 91.3512 12.7207C92.347 12.1377 93.4036 11.8462 94.5209 11.8462C95.9782 11.8462 97.132 12.2713 97.9821 13.1215C98.8565 13.9717 99.318 15.0527 99.3666 16.3644V27.5507H95.9782V17.6397C95.9297 16.8624 95.7232 16.2187 95.3589 15.7086C95.0188 15.1741 94.4237 14.8826 93.5736 14.8341C92.6749 14.8341 91.8855 15.1013 91.2055 15.6357C90.5254 16.1458 89.991 16.826 89.6024 17.6762C89.2138 18.5264 89.0073 19.4252 88.983 20.3725V27.5507H85.5583V17.6397C85.534 16.8624 85.3275 16.2187 84.9389 15.7086C84.5746 15.1741 83.9552 14.8826 83.0808 14.8341C82.2064 14.8341 81.4291 15.1013 80.7491 15.6357C80.069 16.1458 79.5346 16.826 79.146 17.6762C78.7574 18.5264 78.563 19.4373 78.563 20.409V27.5507H75.1747V12.4656H78.2351Z" fill="white"/>
<path d="M111.542 27.915C110.109 27.915 108.81 27.6114 107.644 27.0041C106.502 26.3968 105.592 25.5102 104.912 24.3442C104.256 23.1539 103.928 21.7086 103.928 20.0082C103.928 18.3078 104.268 16.8503 104.948 15.6357C105.652 14.4211 106.587 13.4859 107.753 12.83C108.944 12.1741 110.243 11.8462 111.652 11.8462C113.012 11.8462 114.166 12.1377 115.113 12.7207C116.06 13.3037 116.801 14.0082 117.335 14.8341L117.59 12.4656H120.724V27.5507H117.335V25.0729C117.044 25.4616 116.619 25.8746 116.06 26.3118C115.526 26.749 114.87 27.1256 114.093 27.4414C113.34 27.7571 112.49 27.915 111.542 27.915ZM112.453 25.1094C113.692 25.1094 114.749 24.7693 115.623 24.0891C116.497 23.3847 117.068 22.4373 117.335 21.247V18.2592C117.044 17.2146 116.437 16.3523 115.514 15.6721C114.591 14.992 113.534 14.6519 112.344 14.6519C111.421 14.6519 110.583 14.8705 109.83 15.3077C109.077 15.745 108.47 16.3523 108.008 17.1296C107.571 17.9069 107.353 18.8057 107.353 19.826C107.353 20.8219 107.583 21.7207 108.045 22.5223C108.506 23.2997 109.126 23.9312 109.903 24.4171C110.68 24.8786 111.53 25.1094 112.453 25.1094Z" fill="white"/>
</svg>
